<svg width="100" height="100" viewBox="0 0 100 100" fill="none" xmlns="http://www.w3.org/2000/svg">
<circle cx="50" cy="50" r="50" fill="black"/>
<circle cx="50" cy="50" r="45" fill="white"/>
<path d="M50.6364 25.8182C52.5455 25.8333 54.4545 26.197 56.3636 26.9091C58.2727 27.6212 60.0152 28.803 61.5909 30.4545C63.1667 32.0909 64.4318 34.3258 65.3864 37.1591C66.3409 39.9924 66.8182 43.5455 66.8182 47.8182C66.8182 51.9545 66.4242 55.6288 65.6364 58.8409C64.8636 62.0379 63.7424 64.7348 62.2727 66.9318C60.8182 69.1288 59.0455 70.7955 56.9545 71.9318C54.8788 73.0682 52.5303 73.6364 49.9091 73.6364C47.303 73.6364 44.9773 73.1212 42.9318 72.0909C40.9015 71.0455 39.2348 69.5985 37.9318 67.75C36.6439 65.8864 35.8182 63.7273 35.4545 61.2727H41C41.5 63.4091 42.4924 65.1742 43.9773 66.5682C45.4773 67.947 47.4545 68.6364 49.9091 68.6364C53.5 68.6364 56.3333 67.0682 58.4091 63.9318C60.5 60.7955 61.5455 56.3636 61.5455 50.6364H61.1818C60.3333 51.9091 59.3258 53.0076 58.1591 53.9318C56.9924 54.8561 55.697 55.5682 54.2727 56.0682C52.8485 56.5682 51.3333 56.8182 49.7273 56.8182C47.0606 56.8182 44.6136 56.1591 42.3864 54.8409C40.1742 53.5076 38.4015 51.6818 37.0682 49.3636C35.75 47.0303 35.0909 44.3636 35.0909 41.3636C35.0909 38.5152 35.7273 35.9091 37 33.5455C38.2879 31.1667 40.0909 29.2727 42.4091 27.8636C44.7424 26.4545 47.4848 25.7727 50.6364 25.8182ZM50.6364 30.8182C48.7273 30.8182 47.0076 31.2955 45.4773 32.25C43.9621 33.1894 42.7576 34.4621 41.8636 36.0682C40.9848 37.6591 40.5455 39.4242 40.5455 41.3636C40.5455 43.303 40.9697 45.0682 41.8182 46.6591C42.6818 48.2348 43.8561 49.4924 45.3409 50.4318C46.8409 51.3561 48.5455 51.8182 50.4545 51.8182C51.8939 51.8182 53.2348 51.5379 54.4773 50.9773C55.7197 50.4015 56.803 49.6212 57.7273 48.6364C58.6667 47.6364 59.4015 46.5076 59.9318 45.25C60.4621 43.9773 60.7273 42.6515 60.7273 41.2727C60.7273 39.4545 60.2879 37.75 59.4091 36.1591C58.5455 34.5682 57.3485 33.2803 55.8182 32.2955C54.303 31.3106 52.5758 30.8182 50.6364 30.8182Z" fill="black"/>
</svg>

